<svg width="23" height="23" viewBox="0 0 23 23" fill="none" xmlns="http://www.w3.org/2000/svg">
<path d="M11.4997 0C5.15388 0 0 5.14252 0 11.4997C0 17.8456 5.14253 22.9995 11.4997 22.9995C17.8456 22.9995 22.9995 17.8569 22.9995 11.4997C22.9995 5.14252 17.8456 0 11.4997 0ZM17.7661 14.0994C17.7321 14.7691 17.6299 15.2232 17.471 15.6319C17.312 16.0519 17.0963 16.3925 16.7444 16.7444C16.3925 17.0963 16.0406 17.312 15.6319 17.471C15.2346 17.6299 14.7691 17.7321 14.0994 17.7661C13.4296 17.8002 13.2139 17.8002 11.4997 17.8002C9.78556 17.8002 9.56986 17.7888 8.90009 17.7661C8.23031 17.7321 7.77622 17.6299 7.36754 17.471C6.94752 17.312 6.60695 17.0963 6.25504 16.7444C5.90312 16.3925 5.68743 16.0406 5.52849 15.6319C5.36957 15.2346 5.2674 14.7691 5.23334 14.0994C5.19929 13.4296 5.19929 13.2139 5.19929 11.4997C5.19929 9.78555 5.21064 9.56986 5.23334 8.90009C5.2674 8.23031 5.36957 7.77622 5.52849 7.36755C5.68743 6.94752 5.90312 6.60695 6.25504 6.25503C6.60695 5.90312 6.95887 5.68743 7.36754 5.5285C7.76487 5.36957 8.23031 5.2674 8.90009 5.23334C9.56986 5.19928 9.78556 5.19928 11.4997 5.19928C13.2139 5.19928 13.4296 5.21063 14.0994 5.23334C14.7691 5.2674 15.2232 5.36957 15.6319 5.5285C16.0519 5.68743 16.3925 5.90312 16.7444 6.25503C17.0963 6.60695 17.312 6.95887 17.471 7.36755C17.6299 7.76487 17.7321 8.23031 17.7661 8.90009C17.8002 9.56986 17.8002 9.78555 17.8002 11.4997C17.8002 13.2139 17.7888 13.4296 17.7661 14.0994Z" fill="white"/>
<path d="M11.5004 13.6C12.6607 13.6 13.6012 12.6594 13.6012 11.4992C13.6012 10.339 12.6607 9.39844 11.5004 9.39844C10.3402 9.39844 9.39966 10.339 9.39966 11.4992C9.39966 12.6594 10.3402 13.6 11.5004 13.6Z" fill="white"/>
<path d="M16.4152 7.77437C16.3017 7.47921 16.1654 7.27487 15.9384 7.04783C15.7227 6.83214 15.507 6.69591 15.2119 6.57104C14.9848 6.48022 14.6556 6.37805 14.0426 6.35535C13.3728 6.32129 13.1798 6.32129 11.4997 6.32129C9.81958 6.32129 9.61524 6.33264 8.95682 6.35535C8.3438 6.37805 8.00324 6.49157 7.78755 6.57104C7.49239 6.68456 7.28805 6.82078 7.06101 7.04783C6.84532 7.26352 6.7091 7.47921 6.58422 7.77437C6.4934 8.00141 6.39123 8.33062 6.36853 8.94364C6.33447 9.61341 6.33447 9.8064 6.33447 11.4865C6.33447 13.1666 6.34582 13.371 6.36853 14.0294C6.39123 14.6424 6.50476 14.983 6.58422 15.1987C6.69774 15.4938 6.83396 15.6982 7.06101 15.9252C7.2767 16.1409 7.49239 16.2771 7.78755 16.402C8.01459 16.4928 8.3438 16.595 8.95682 16.6177C9.62659 16.6517 9.81958 16.6517 11.4997 16.6517C13.1798 16.6517 13.3842 16.6404 14.0426 16.6177C14.6556 16.595 14.9962 16.4815 15.2119 16.402C15.507 16.2885 15.7113 16.1523 15.9384 15.9252C16.1541 15.7095 16.2903 15.4938 16.4152 15.1987C16.506 14.9716 16.6082 14.6424 16.6309 14.0294C16.6649 13.3596 16.6649 13.1666 16.6649 11.4865C16.6649 9.8064 16.6536 9.60206 16.6309 8.94364C16.5968 8.33062 16.4946 8.00141 16.4152 7.77437ZM11.4997 14.7332C9.71741 14.7332 8.26434 13.2802 8.26434 11.4979C8.26434 9.70423 9.71741 8.26251 11.4997 8.26251C13.2933 8.26251 14.7351 9.71558 14.7351 11.4979C14.7351 13.2802 13.282 14.7332 11.4997 14.7332ZM14.8599 8.88688C14.4399 8.88688 14.0993 8.54631 14.0993 8.12628C14.0993 7.70625 14.4399 7.36569 14.8599 7.36569C15.28 7.36569 15.6205 7.70625 15.6205 8.12628C15.6205 8.54631 15.28 8.88688 14.8599 8.88688Z" fill="white"/>
</svg>
